<svg width="48" height="48" fill="none" xmlns="http://www.w3.org/2000/svg"><circle cx="24" cy="24" r="24" fill="#22C55E"/><path d="M31.41 25c-.22 0-.45-.07-.67-.12-.445-.1-.883-.23-1.31-.39a2 2 0 00-2.48 1l-.22.46a13.173 13.173 0 01-2.67-2 13.163 13.163 0 01-2-2.67l.46-.21a2 2 0 001-2.48 10.46 10.46 0 01-.39-1.32c-.05-.22-.09-.45-.12-.67a3 3 0 00-3-2.49H17a2.998 2.998 0 00-2.24 1 3.002 3.002 0 00-.73 2.4 19.07 19.07 0 005.41 11 19.07 19.07 0 0011 5.41c.13.01.26.01.39 0a3 3 0 002.74-1.773 3 3 0 00.26-1.227v-3A3 3 0 0031.41 25zm.49 6a1 1 0 01-.712.957 1 1 0 01-.438.033 17.16 17.16 0 01-9.87-4.84 17.16 17.16 0 01-4.88-9.9 1 1 0 01.59-1.065A1 1 0 0117 16.1h3a1 1 0 011 .78c0 .27.09.55.15.82.116.524.27 1.039.46 1.54l-1.4.66a1 1 0 00-.52.56 1 1 0 000 .76 14.49 14.49 0 007 7 1 1 0 00.76 0 1 1 0 00.56-.52l.63-1.4a12.42 12.42 0 002.39.61 1 1 0 01.78 1L31.9 31zM26 14h-.7a1.003 1.003 0 10.17 2H26a6 6 0 016 6v.53a1 1 0 00.91 1.08h.08a1 1 0 001-.91V22A8 8 0 0026 14zm2 8a1 1 0 002 0 4 4 0 00-4-4 1 1 0 000 2 2 2 0 012 2z" fill="#F0FDF4"/></svg>