<svg width="48" height="48" fill="none" xmlns="http://www.w3.org/2000/svg"><circle cx="24" cy="24" r="24" fill="#22C55E"/><path d="M32.21 20.82L26 14.78a2.83 2.83 0 00-3.9 0l-6.21 6a2.6 2.6 0 00-.89 1.93v8.58A2.75 2.75 0 0017.78 34h12.44A2.75 2.75 0 0033 31.29v-8.58a2.672 2.672 0 00-.79-1.89zm-8.77-4.6a.83.83 0 011.12 0L30 21.5l-5.47 5.28a.83.83 0 01-1.12 0L18 21.5l5.44-5.28zM31 31.29a.76.76 0 01-.78.71H17.78a.76.76 0 01-.78-.71v-7.94l4.05 3.9-1.66 1.6a1 1 0 000 1.41 1 1 0 00.72.31 1 1 0 00.69-.28l1.77-1.7a2.8 2.8 0 002.92 0l1.77 1.7a1 1 0 00.69.28.999.999 0 00.72-.31 1 1 0 000-1.41L27 27.25l4-3.9v7.94z" fill="#F0FDF4"/></svg>