<svg width="64" height="64" fill="none" xmlns="http://www.w3.org/2000/svg"><rect width="64" height="64" rx="6" fill="#22C55E"/><path d="M41.32 29.55l-1.89-.63.89-1.78a1 1 0 00-.19-1.14L38 23.87a1 1 0 00-1.15-.19l-1.78.89-.63-1.89a1 1 0 00-.94-.68h-3a1 1 0 00-.95.68l-.63 1.89-1.78-.89a1 1 0 00-1.14.19L23.87 26a1 1 0 00-.19 1.15l.89 1.78-1.89.63a1 1 0 00-.68.94v3a1 1 0 00.68.95l1.89.63-.89 1.78a1 1 0 00.19 1.14L26 40.13a1 1 0 001.15.19l1.78-.89.63 1.89a1 1 0 00.95.68h3a1 1 0 00.95-.68l.63-1.89 1.78.89a1 1 0 001.13-.19L40.13 38a1 1 0 00.19-1.15l-.89-1.78 1.89-.63a1 1 0 00.68-.94v-3a1 1 0 00-.68-.95zM40 32.78l-1.2.4A2 2 0 0037.64 36l.57 1.14-1.1 1.1-1.11-.6a2 2 0 00-2.79 1.16l-.4 1.2h-1.59l-.4-1.2A2 2 0 0028 37.64l-1.14.57-1.1-1.1.6-1.11a2 2 0 00-1.16-2.82l-1.2-.4v-1.56l1.2-.4A2 2 0 0026.36 28l-.57-1.11 1.1-1.1 1.11.57a2 2 0 002.82-1.16l.4-1.2h1.56l.4 1.2A2 2 0 0036 26.36l1.14-.57 1.1 1.1-.6 1.11a2 2 0 001.16 2.79l1.2.4v1.59zM32 28a4 4 0 100 8 4 4 0 000-8zm0 6a2 2 0 110-4 2 2 0 010 4z" fill="#fff"/></svg>