<svg width="64" height="64" fill="none" xmlns="http://www.w3.org/2000/svg"><rect width="64" height="64" rx="6" fill="#22C55E"/><g clip-path="url(#clip0_2454_14325)"><path d="M37 41.63H25a3 3 0 01-3-3v-8a1 1 0 00-2 0v8a5 5 0 005 5h12a1 1 0 000-2zm4-18H27a3 3 0 00-3 3v10a3 3 0 003 3h14a3 3 0 003-3v-10a3 3 0 00-3-3zm-.41 2l-5.88 5.88a1.002 1.002 0 01-1.42 0l-5.88-5.88h13.18zm1.41 11a1 1 0 01-1 1H27a1 1 0 01-1-1V27l5.88 5.88a3 3 0 004.24 0L42 27v9.63z" fill="#fff"/></g><defs><clipPath id="clip0_2454_14325"><path fill="#fff" transform="translate(20 20)" d="M0 0h24v24H0z"/></clipPath></defs></svg>