<svg width="160" height="160" fill="none" xmlns="http://www.w3.org/2000/svg"><mask id="mask0_2451_13820" style="mask-type:alpha" maskUnits="userSpaceOnUse" x="0" y="0" width="279" height="279"><circle cx="139.5" cy="139.5" r="137.576" fill="#C4C4C4" stroke="#F8BB54" stroke-width="3.848"/></mask><g mask="url(#mask0_2451_13820)" stroke="#EF5944" stroke-width="4.326" stroke-miterlimit="10"><path d="M-81.07 58.504S-16.112 46.47.648 4.354C16.678-36.017 82.706-46.87 82.706-46.87"/><path d="M-81.07 78.746s79.694-13.889 100.222-64.72C38.726-34.499 119.657-46.87 119.657-46.87"/><path d="M-81.07 99.044S13.302 83.245 37.6 23.81c23.172-56.847 119.008-70.68 119.008-70.68"/><path d="M-81.07 119.287S28.038 101.631 56.102 33.482C82.819-31.52 193.56-46.87 193.56-46.87"/><path d="M-81.07 139.53S42.773 120.018 74.606 43.21C104.865-30 230.454-46.87 230.454-46.87"/><path d="M-81.07 159.828S57.452 138.461 93.054 52.937c33.913-81.476 174.35-99.807 174.35-99.807"/><path d="M-81.07 180.07S72.188 156.792 111.557 62.664C149.015-27.02 304.356-46.87 304.356-46.87"/><path d="M-81.07 200.313S86.923 175.178 130.004 72.336C171.062-25.503 341.307-46.87 341.307-46.87"/><path d="M-81.07 220.612s182.673-26.99 229.579-138.493C193.109-24.04 378.202-46.87 378.202-46.87"/><path d="M-81.07 240.853s197.409-28.844 248.027-149.006C215.156-22.523 415.153-46.87 415.153-46.87"/><path d="M-81.07 261.152s212.144-30.757 266.53-159.577C237.203-21.005 452.104-46.87 452.104-46.87"/><path d="M-81.07 281.396s226.823-32.613 284.978-170.093C259.25-19.542 489.054-46.87 489.054-46.87"/><path d="M-81.07 301.636s241.558-34.466 303.48-180.662C281.297-18.024 526.005-46.87 526.005-46.87"/><path d="M-81.07 321.935s256.294-36.378 321.985-191.177C303.343-16.506 562.901-46.87 562.901-46.87"/><path d="M-81.07 342.179s270.973-38.236 340.432-201.75C325.391-15.044 599.852-46.87 599.852-46.87"/><path d="M-81.07 362.423s285.709-40.093 358.936-212.266C347.437-13.526 636.803-46.87 636.803-46.87"/><path d="M-81.07 382.722s300.444-41.95 377.383-222.838C369.484-12.008 673.753-46.87 673.753-46.87"/><path d="M-81.07 402.962s315.123-43.858 395.887-233.35C391.531-10.546 710.65-46.87 710.65-46.87"/></g></svg>