<svg width="160" height="160" fill="none" xmlns="http://www.w3.org/2000/svg"><path d="M-200.071.287s109.11-17.656 137.174-85.805C-36.181-150.52 74.56-165.87 74.56-165.87" stroke="#F59E0B" stroke-width="4.326" stroke-miterlimit="10"/><path d="M-200.071 20.53S-76.226 1.017-44.393-75.79c30.258-73.211 155.847-90.08 155.847-90.08" stroke="#F59E0B" stroke-width="4.326" stroke-miterlimit="10"/><path d="M-200.071 40.828S-61.547 19.461-25.946-66.064c33.914-81.475 174.351-99.806 174.351-99.806" stroke="#F59E0B" stroke-width="4.326" stroke-miterlimit="10"/><path d="M-200.071 61.07S-46.811 37.791-7.441-56.336C30.014-146.02 185.355-165.87 185.355-165.87" stroke="#F59E0B" stroke-width="4.326" stroke-miterlimit="10"/><path d="M-200.071 81.313S-32.076 56.178 11.005-46.664C52.062-144.503 222.307-165.87 222.307-165.87" stroke="#F59E0B" stroke-width="4.326" stroke-miterlimit="10"/><path d="M-200.071 121.853S-2.661 93.009 47.957-27.153C96.156-141.523 296.153-165.87 296.153-165.87" stroke="#F59E0B" stroke-width="4.326" stroke-miterlimit="10"/><path d="M-200.071 142.152S12.074 111.395 66.46-17.425c51.743-122.58 266.644-148.445 266.644-148.445" stroke="#F59E0B" stroke-width="4.326" stroke-miterlimit="10"/><path d="M-200.071 162.396S26.753 129.783 84.908-7.697C140.25-138.542 370.054-165.87 370.054-165.87" stroke="#F59E0B" stroke-width="4.326" stroke-miterlimit="10"/><path d="M-200.071 182.636S41.489 148.17 103.411 1.974C162.297-137.024 407.005-165.87 407.005-165.87" stroke="#F59E0B" stroke-width="4.326" stroke-miterlimit="10"/><path d="M-200.071 202.935S56.224 166.557 121.915 11.758C184.343-135.506 443.901-165.87 443.901-165.87" stroke="#F59E0B" stroke-width="4.326" stroke-miterlimit="10"/><path d="M-200.071 223.179s270.974-38.236 340.433-201.75c66.029-155.473 340.49-187.299 340.49-187.299" stroke="#F59E0B" stroke-width="4.326" stroke-miterlimit="10"/><path d="M-200.071 243.423S85.639 203.33 158.866 31.156C228.437-132.525 517.803-165.87 517.803-165.87" stroke="#F59E0B" stroke-width="4.326" stroke-miterlimit="10"/><path d="M-200.071 263.722s300.445-41.95 377.384-222.838c73.171-171.892 377.44-206.754 377.44-206.754" stroke="#F59E0B" stroke-width="4.326" stroke-miterlimit="10"/><path d="M-200.071 283.962s315.124-43.858 395.888-233.35C272.531-129.546 591.65-165.87 591.65-165.87" stroke="#F59E0B" stroke-width="4.326" stroke-miterlimit="10"/></svg>