<svg width="149" height="91" fill="none" xmlns="http://www.w3.org/2000/svg"><g clip-path="url(#clip0_2451_13841)" fill="#A855F7"><path d="M146.25 90.91a2.64 2.64 0 100-5.28 2.64 2.64 0 000 5.28zm-23.94 0a2.64 2.64 0 100-5.28 2.64 2.64 0 000 5.28zm-23.93 0a2.65 2.65 0 10.02-5.3 2.65 2.65 0 00-.02 5.3zm-23.93 0a2.65 2.65 0 100-5.3 2.65 2.65 0 000 5.3zm-23.94 0a2.64 2.64 0 100-5.28 2.64 2.64 0 000 5.28zm-22.92-.314a2.64 2.64 0 10-2.007-4.884 2.64 2.64 0 002.007 4.883zM2.65 85.66a2.65 2.65 0 10-.02 5.298 2.65 2.65 0 00.02-5.298zm143.6-16.16a2.64 2.64 0 100-5.28 2.64 2.64 0 000 5.28zm-23.94 0a2.64 2.64 0 100-5.28 2.64 2.64 0 000 5.28zm-23.93 0a2.651 2.651 0 10.02-5.302 2.651 2.651 0 00-.02 5.302zm-23.93 0a2.65 2.65 0 10-2.65-2.64 2.64 2.64 0 002.65 2.64zm-23.94 0a2.64 2.64 0 100-5.28 2.64 2.64 0 000 5.28zm-22.917-.307a2.64 2.64 0 10-2.008-4.883 2.64 2.64 0 002.008 4.883zM2.65 69.5A2.65 2.65 0 100 66.86a2.64 2.64 0 002.65 2.64zm143.6-21.41a2.64 2.64 0 100-5.28 2.64 2.64 0 000 5.28zm-23.94 0a2.64 2.64 0 100-5.28 2.64 2.64 0 000 5.28zm-23.93.01a2.65 2.65 0 10.02-5.3 2.65 2.65 0 00-.02 5.3zm-23.93 0a2.65 2.65 0 100-5.3 2.65 2.65 0 000 5.3zm-23.94-.01a2.64 2.64 0 100-5.28 2.64 2.64 0 000 5.28zm-22.919-.299a2.64 2.64 0 10-2.008-4.883 2.64 2.64 0 002.008 4.883zM2.65 48.1a2.65 2.65 0 100-5.3 2.65 2.65 0 000 5.3zm143.6-21.41a2.64 2.64 0 100-5.28 2.64 2.64 0 000 5.28zm-23.94 0a2.64 2.64 0 100-5.28 2.64 2.64 0 000 5.28zm-23.93-.03a2.65 2.65 0 10.02-5.3 2.65 2.65 0 00-.02 5.3zm-23.93 0a2.65 2.65 0 10-2.65-2.64 2.64 2.64 0 002.65 2.64zm-23.94.03a2.64 2.64 0 100-5.28 2.64 2.64 0 000 5.28zm-22.916-.3a2.64 2.64 0 10-2.008-4.884 2.64 2.64 0 002.008 4.883zm-24.944.27A2.65 2.65 0 100 24.02a2.64 2.64 0 002.65 2.64zm143.6-21.38a2.64 2.64 0 100-5.28 2.64 2.64 0 000 5.28zm-23.94 0a2.64 2.64 0 100-5.28 2.64 2.64 0 000 5.28zm-23.93.01a2.65 2.65 0 10.02-5.3 2.65 2.65 0 00-.02 5.3zm-23.93 0a2.65 2.65 0 100-5.3 2.65 2.65 0 000 5.3zm-23.94-.01a2.64 2.64 0 100-5.28 2.64 2.64 0 000 5.28zm-22.918-.303A2.64 2.64 0 1025.584.094a2.64 2.64 0 002.008 4.883zM2.65 5.29a2.65 2.65 0 100-5.3 2.65 2.65 0 000 5.3z"/></g><defs><clipPath id="clip0_2451_13841"><path fill="#fff" d="M0 0h148.89v90.91H0z"/></clipPath></defs></svg>