<svg width="24" height="24" fill="none" xmlns="http://www.w3.org/2000/svg"><path fill-rule="evenodd" clip-rule="evenodd" d="M7.6 2.182h8.8A5.425 5.425 0 0121.817 7.6v8.798a5.425 5.425 0 01-5.419 5.419H7.601a5.425 5.425 0 01-5.42-5.419V7.601a5.425 5.425 0 015.42-5.42zm8.8 17.894a3.68 3.68 0 003.676-3.677V7.601a3.681 3.681 0 00-3.677-3.677H7.601A3.68 3.68 0 003.924 7.6v8.798a3.68 3.68 0 003.677 3.677h8.798zM6.856 12A5.149 5.149 0 0112 6.857 5.149 5.149 0 0117.143 12 5.149 5.149 0 0112 17.143 5.149 5.149 0 016.857 12zm1.77 0A3.376 3.376 0 0012 15.372 3.376 3.376 0 0015.372 12 3.376 3.376 0 0012 8.628 3.376 3.376 0 008.628 12z" fill="#22C55E"/><mask id="mask0_2454_16694" style="mask-type:luminance" maskUnits="userSpaceOnUse" x="2" y="2" width="20" height="20"><path fill-rule="evenodd" clip-rule="evenodd" d="M7.6 2.182h8.8A5.425 5.425 0 0121.817 7.6v8.798a5.425 5.425 0 01-5.419 5.419H7.601a5.425 5.425 0 01-5.42-5.419V7.601a5.425 5.425 0 015.42-5.42zm8.8 17.894a3.68 3.68 0 003.676-3.677V7.601a3.681 3.681 0 00-3.677-3.677H7.601A3.68 3.68 0 003.924 7.6v8.798a3.68 3.68 0 003.677 3.677h8.798zM6.856 12A5.149 5.149 0 0112 6.857 5.149 5.149 0 0117.143 12 5.149 5.149 0 0112 17.143 5.149 5.149 0 016.857 12zm1.77 0A3.376 3.376 0 0012 15.372 3.376 3.376 0 0015.372 12 3.376 3.376 0 0012 8.628 3.376 3.376 0 008.628 12z" fill="#fff"/></mask></svg>