<svg width="95" height="32" fill="none" xmlns="http://www.w3.org/2000/svg"><path d="M53.965 6.995v3.587h-7.488v3.875h5.603v3.482h-5.603v7.436H42V6.995h11.965zM60.795 6v19.375h-4.477V6h4.477zm17.016 11.834c0 .42-.026.855-.078 1.31H67.6c.07.907.358 1.605.865 2.094.523.471 1.16.707 1.91.707 1.118 0 1.895-.471 2.331-1.414h4.765a6.453 6.453 0 01-1.335 2.592 6.5 6.5 0 01-2.383 1.806c-.96.437-2.033.655-3.22.655-1.431 0-2.706-.305-3.823-.916a6.518 6.518 0 01-2.618-2.619c-.628-1.134-.942-2.46-.942-3.98 0-1.518.305-2.844.916-3.979a6.517 6.517 0 012.618-2.618c1.117-.61 2.4-.916 3.849-.916 1.414 0 2.67.296 3.77.89a6.307 6.307 0 012.566 2.54c.628 1.1.942 2.382.942 3.848zm-4.581-1.178c0-.768-.262-1.379-.786-1.833-.523-.454-1.178-.68-1.963-.68-.751 0-1.388.218-1.912.654-.506.436-.82 1.056-.942 1.859h5.603zm15.583 8.719l-2.801-4.059-2.356 4.059h-4.844l4.817-7.462-4.948-7.148h5.027l2.801 4.032 2.357-4.032h4.843l-4.896 7.357 5.027 7.253h-5.027z" fill="#fff"/><path d="M14.626 9.946c4.38 1.546 9.103 1.46 13.44-.214.042-1.76-.43-3.521-1.246-5.11l-.43-.858a1.13 1.13 0 00-.386.214c-3.95 1.89-8.415 2.147-12.58.644-2.92-1.03-6.097-.772-8.845.601l-.859.43c.043.129.129.3.215.386A19.42 19.42 0 015.18 9.603c3.006-.859 6.355-.773 9.446.343zM3.935 22.87l.945-.515a12.876 12.876 0 016.12-1.36c1.289.038 2.571.274 3.798.716.4.142.8.272 1.202.39v4.577a16.087 16.087 0 00-5-.14 16.461 16.461 0 00-5.004 1.484 1.126 1.126 0 01-.387.215l-.429-.859a11.253 11.253 0 01-1.245-4.508zm.515-3.95c3.65-1.503 7.729-1.632 11.464-.3 3.435 1.202 7.085 1.416 10.52.644-.043-1.933.214-3.822.901-5.71-4.508 1.33-9.36 1.201-13.868-.387-2.576-.945-5.41-.945-7.986-.086.043 1.846-.3 3.735-.945 5.582l-.086.257z" fill="#22C55E"/></svg>