<svg width="95" height="32" fill="none" xmlns="http://www.w3.org/2000/svg"><path d="M54.316 6.711v3.587h-7.488v3.875h5.602v3.482h-5.602v7.436H42.35V6.71h11.966zm6.83-.995v19.375h-4.477V5.716h4.477zM78.162 17.55c0 .42-.026.856-.079 1.31H67.951c.07.907.358 1.605.864 2.094.524.471 1.16.707 1.911.707 1.117 0 1.894-.471 2.33-1.414h4.766a6.455 6.455 0 01-1.336 2.592c-.628.768-1.422 1.37-2.382 1.807-.96.436-2.034.654-3.22.654-1.432 0-2.706-.305-3.823-.916a6.518 6.518 0 01-2.618-2.618c-.629-1.135-.943-2.461-.943-3.98 0-1.518.306-2.845.916-3.98a6.518 6.518 0 012.619-2.618c1.117-.61 2.4-.916 3.848-.916 1.414 0 2.67.297 3.77.89a6.307 6.307 0 012.566 2.54c.629 1.1.943 2.382.943 3.848zm-4.582-1.178c0-.768-.262-1.379-.785-1.832-.524-.454-1.178-.681-1.964-.681-.75 0-1.388.218-1.911.654-.506.437-.82 1.056-.943 1.86h5.603zm15.584 8.718l-2.802-4.057-2.356 4.058h-4.844l4.818-7.462-4.949-7.148h5.027l2.802 4.032 2.356-4.032h4.844l-4.896 7.357 5.027 7.253h-5.027z" fill="#000"/><path d="M14.626 9.946c4.38 1.546 9.103 1.46 13.44-.215.042-1.76-.43-3.52-1.246-5.11l-.43-.858c-.128.043-.3.129-.386.215-3.95 1.889-8.415 2.147-12.58.644-2.92-1.03-6.097-.773-8.845.601l-.859.43c.043.128.129.3.215.386A19.42 19.42 0 015.18 9.602c3.006-.858 6.355-.772 9.446.344zM3.935 22.87l.945-.515a12.876 12.876 0 016.12-1.36c1.289.038 2.571.274 3.798.715.4.142.8.272 1.202.391v4.577a16.084 16.084 0 00-5-.14 16.464 16.464 0 00-5.004 1.484 1.125 1.125 0 01-.387.215l-.429-.859a11.253 11.253 0 01-1.245-4.508zm.515-3.95c3.65-1.503 7.729-1.632 11.464-.3 3.435 1.201 7.085 1.416 10.52.643-.044-1.932.214-3.821.901-5.71-4.508 1.33-9.36 1.202-13.868-.387-2.577-.944-5.41-.944-7.986-.086.042 1.847-.301 3.736-.945 5.582l-.086.258z" fill="#22C55E"/></svg>