<svg width="129" height="129" fill="none" xmlns="http://www.w3.org/2000/svg"><mask id="mask0_2454_15280" style="mask-type:alpha" maskUnits="userSpaceOnUse" x="0" y="0" width="129" height="129"><circle cx="64.5" cy="64.5" r="63.61" fill="#C4C4C4" stroke="#F8BB54" stroke-width="1.779"/></mask><g mask="url(#mask0_2454_15280)" stroke="#F8BB54" stroke-width="2" stroke-miterlimit="10"><path d="M-37.484 27.05S-7.45 21.486.3 2.014c7.411-18.667 37.94-23.685 37.94-23.685"/><path d="M-37.484 36.41S-.636 29.987 8.856 6.484c9.049-22.436 46.47-28.156 46.47-28.156"/><path d="M-37.484 45.795S6.15 38.489 17.385 11.009c10.714-26.284 55.025-32.68 55.025-32.68"/><path d="M-37.484 55.154s50.448-8.163 63.424-39.673c12.352-30.054 63.555-37.152 63.555-37.152"/><path d="M-37.484 64.514s57.261-9.022 71.98-44.536c13.99-33.85 72.058-41.649 72.058-41.649"/><path d="M-37.484 73.899s64.048-9.88 80.51-49.423c15.68-37.671 80.613-46.147 80.613-46.147"/><path d="M-37.484 83.258S33.378 72.495 51.58 28.974c17.319-41.468 89.143-50.645 89.143-50.645"/><path d="M-37.484 92.618S40.19 80.997 60.11 33.446c18.983-45.238 97.699-55.117 97.699-55.117"/><path d="M-37.484 102.003s84.462-12.479 106.15-64.034c20.621-49.085 106.202-59.64 106.202-59.64"/><path d="M-37.484 111.362S53.79 98.026 77.195 42.467c22.286-52.88 114.757-64.138 114.757-64.138"/><path d="M-37.484 120.747s98.088-14.22 123.235-73.782c23.923-56.677 123.286-68.636 123.286-68.636"/><path d="M-37.484 130.108S67.39 115.029 94.28 51.463c25.588-60.499 131.842-73.134 131.842-73.134"/><path d="M-37.484 139.466S74.204 123.53 102.835 55.934C130.062-8.334 243.206-21.67 243.206-21.67"/><path d="M-37.484 148.851S81.018 132.032 111.39 60.458c28.865-68.09 148.875-82.129 148.875-82.129"/><path d="M-37.484 158.212S87.805 140.533 119.92 64.93c30.529-71.886 157.431-86.6 157.431-86.6"/><path d="M-37.484 167.572s132.102-18.538 165.96-98.145c32.167-75.68 165.96-91.098 165.96-91.098"/><path d="M-37.484 176.957S101.43 157.561 137.005 73.925C170.837-5.552 311.52-21.67 311.52-21.67"/><path d="M-37.484 186.316S108.218 166.037 145.56 78.423c35.471-83.3 183.02-100.094 183.02-100.094"/></g></svg>