<svg width="24" height="24" fill="none" xmlns="http://www.w3.org/2000/svg"><path fill-rule="evenodd" clip-rule="evenodd" d="M21.818 6.146a7.596 7.596 0 01-2.184.6 3.82 3.82 0 001.672-2.104 7.67 7.67 0 01-2.418.924 3.805 3.805 0 00-6.483 3.469 10.8 10.8 0 01-7.84-3.976 3.776 3.776 0 00-.515 1.912c0 1.32.672 2.485 1.692 3.166A3.805 3.805 0 014.02 9.66v.047a3.808 3.808 0 003.051 3.73 3.852 3.852 0 01-1.002.134c-.246 0-.483-.024-.716-.07a3.807 3.807 0 003.553 2.642 7.633 7.633 0 01-4.725 1.625c-.307 0-.61-.018-.907-.052a10.753 10.753 0 005.831 1.712c6.999 0 10.824-5.797 10.824-10.824l-.013-.492a7.597 7.597 0 001.903-1.966z" fill="#22C55E"/><mask id="mask0_2454_16693" style="mask-type:luminance" maskUnits="userSpaceOnUse" x="3" y="4" width="19" height="16"><path fill-rule="evenodd" clip-rule="evenodd" d="M21.818 6.146a7.596 7.596 0 01-2.184.6 3.82 3.82 0 001.672-2.104 7.67 7.67 0 01-2.418.924 3.805 3.805 0 00-6.483 3.469 10.8 10.8 0 01-7.84-3.976 3.776 3.776 0 00-.515 1.912c0 1.32.672 2.485 1.692 3.166A3.805 3.805 0 014.02 9.66v.047a3.808 3.808 0 003.051 3.73 3.852 3.852 0 01-1.002.134c-.246 0-.483-.024-.716-.07a3.807 3.807 0 003.553 2.642 7.633 7.633 0 01-4.725 1.625c-.307 0-.61-.018-.907-.052a10.753 10.753 0 005.831 1.712c6.999 0 10.824-5.797 10.824-10.824l-.013-.492a7.597 7.597 0 001.903-1.966z" fill="#fff"/></mask></svg>