<svg width="184" height="48" fill="none" xmlns="http://www.w3.org/2000/svg"><path d="M75.055 29.17c0 2.282-.536 3.957-1.606 5.028-1.07 1.07-2.723 1.606-4.957 1.606a75.94 75.94 0 01-7.052-.35v-4.712c1.815.116 3.677.174 5.585.174.536 0 .955-.15 1.257-.454.326-.325.489-.756.489-1.291V15.905h-4.538v-4.887h10.822v18.153zm15.707 6.285H78.195v-4.888h3.142V15.905h-3.142v-4.887h12.567v4.887h-3.141v14.662h3.141v4.888zm24.085-.525c-5.446.583-10.45.874-15.011.874-2.28 0-3.956-.536-5.027-1.606-1.07-1.07-1.606-2.746-1.606-5.027V18c0-2.444.547-4.212 1.641-5.306 1.117-1.117 2.897-1.676 5.341-1.676h12.567v4.887h-11.171c-1.396 0-2.094.699-2.094 2.095v11.17c0 .536.151.967.454 1.292.326.303.756.454 1.291.454 2.677 0 5.12-.058 7.331-.174V25.68h-4.538v-4.19h10.822v13.44zm24.443 0c-5.446.583-10.449.874-15.011.874-2.281 0-3.956-.536-5.027-1.606-1.07-1.07-1.606-2.746-1.606-5.027V18c0-2.444.547-4.212 1.641-5.306 1.117-1.117 2.898-1.676 5.341-1.676h12.568v4.887h-11.171c-1.397 0-2.095.699-2.095 2.095v11.17c0 .536.151.967.454 1.292.326.303.756.454 1.292.454 2.676 0 5.12-.058 7.33-.174V25.68h-4.538v-4.19h10.822v13.44zm9.781-4.363h12.742v4.888h-19.025V11.018h6.283v19.55zm34.569 4.888h-19.375V11.018h19.375v4.887h-13.091v4.713h10.298v4.887h-10.298v5.062h13.091v4.888z" fill="#8896AB"/><g clip-path="url(#clip0_2451_14099)"><path fill-rule="evenodd" clip-rule="evenodd" d="M2.656 8.33a2.687 2.687 0 012.676 2.676 2.668 2.668 0 005.333 0v-8.33A2.687 2.687 0 0113.341 0a2.683 2.683 0 012.658 2.676v17.489a2.666 2.666 0 005.151 1.043c.13-.332.192-.687.182-1.043v-9.16a2.687 2.687 0 012.676-2.675 2.683 2.683 0 012.658 2.676v9.159a2.666 2.666 0 005.331 0V2.675A2.687 2.687 0 0134.675 0a2.67 2.67 0 012.656 2.676v8.33a2.668 2.668 0 005.334 0 2.687 2.687 0 012.677-2.676 2.67 2.67 0 012.656 2.676v26.008a2.666 2.666 0 01-2.656 2.656 2.683 2.683 0 01-2.677-2.656 2.668 2.668 0 10-5.334 0v8.32a2.656 2.656 0 01-2.656 2.658 2.672 2.672 0 01-2.676-2.658V27.822a2.666 2.666 0 10-5.331 0V37a2.68 2.68 0 01-2.658 2.656A2.684 2.684 0 0121.334 37v-9.178a2.668 2.668 0 00-5.333 0v17.512a2.666 2.666 0 01-2.658 2.658 2.67 2.67 0 01-2.676-2.658v-8.328a2.668 2.668 0 10-5.333 0 2.683 2.683 0 01-2.676 2.656A2.68 2.68 0 010 37.006v-26A2.683 2.683 0 012.658 8.33h-.002zm8.01 10.346a2.668 2.668 0 10-5.334 0v10.667a2.668 2.668 0 005.333 0V18.676zm26.657 10.667V18.676a2.668 2.668 0 115.334 0v10.667a2.668 2.668 0 01-5.334 0z" fill="#8896AB"/></g><defs><clipPath id="clip0_2451_14099"><path fill="#fff" d="M0 0h48v48H0z"/></clipPath></defs></svg>