<svg width="176" height="44" fill="none" xmlns="http://www.w3.org/2000/svg"><g clip-path="url(#clip0_2451_14102)"><path d="M39.459 2.516a1.348 1.348 0 01.899 1.217c.138 1.44.197 2.885.176 4.331-.015.663-.03 1.327-.074 1.99-.25-.104-.486-.207-.737-.304a51.711 51.711 0 00-1.886-.708c.015-.337.03-.661.03-1a35.345 35.345 0 00-.103-3.271 50.737 50.737 0 00-3.195-.884 44.065 44.065 0 00-4.125-.782 78.683 78.683 0 00-2.253-.265 41.14 41.14 0 00-2.27-.152 70.047 70.047 0 00-1.796-.029l-.9.014c-.266 0-.575.015-.899.015-.78.03-1.532.088-2.27.152-.737.064-1.472.163-2.252.265a44.8 44.8 0 00-4.126.782c-1.09.264-2.151.56-3.195.884a36.257 36.257 0 00.192 7.264c.163 1.347.4 2.685.707 4.007.177.751.384 1.503.609 2.224l.015.059.014.06.015.059.03.057.014.06.015.06.016.058.058.162v.015l.015.058.103.28.014.059.09.236.013.044a38.19 38.19 0 001.578 3.874l.029.045.015.045.014.03.03.043.014.044.015.044.029.03c.222.456.456.912.694 1.369.176.295.337.608.5.883.192.34.369.635.531.884.5.811 1.03 1.607 1.591 2.373a35.61 35.61 0 001.768 2.24c.236.28.501.574.796.884.28.304.544.608.795.868a47.46 47.46 0 002.004 1.915l.28.236c-.192.152-.384.304-.59.456-.53.398-1.075.78-1.62 1.164a39.656 39.656 0 01-7.514-9.09v-.016l-.016-.014-.015-.015c-.117-.191-.22-.383-.324-.544-.176-.325-.368-.65-.53-.959a35.95 35.95 0 01-1.355-2.755 40.223 40.223 0 01-2.343-6.91c-1-4.232-1.299-8.6-.883-12.93a1.339 1.339 0 01.913-1.208c1.4-.471 2.83-.884 4.273-1.238a54.75 54.75 0 014.361-.825c.76-.103 1.561-.191 2.4-.264a44.638 44.638 0 012.388-.163c.295 0 .608-.015.943-.015L24.132 0l.957.014c.34 0 .663.015.943.015.796.03 1.591.088 2.402.163.84.073 1.636.16 2.387.264 1.501.221 2.96.5 4.375.825 1.43.354 2.859.76 4.273 1.238l-.01-.003zM30.824 29.2a40.845 40.845 0 001.547-2.314 1.36 1.36 0 011.754-.575 24.114 24.114 0 016.866 4.921 1.341 1.341 0 01.22 1.71 67.116 67.116 0 01-1.325 1.988 39.097 39.097 0 01-1.444 1.93c-.354.457-.737.929-1.15 1.4-.352.413-.751.87-1.192 1.356a52.62 52.62 0 01-1.826 1.9h-.015a38.277 38.277 0 01-1.871 1.739 1.348 1.348 0 01-1.488.266 41.184 41.184 0 01-5.584-3.11c.235-.176.471-.352.707-.544.5-.399 1.003-.796 1.473-1.217a36.775 36.775 0 003.728 2.076c.397-.368.78-.736 1.18-1.12a41.187 41.187 0 001.723-1.782c.353-.368.72-.81 1.135-1.281.352-.428.72-.87 1.075-1.34.485-.59.928-1.194 1.355-1.814.236-.304.457-.648.678-.972a18.598 18.598 0 00-2.123-1.752 20.15 20.15 0 00-2.224-1.401 38.71 38.71 0 01-1.046 1.503 40.156 40.156 0 01-1.9 2.417c-.296.338-.575.648-.84.943-.119.152-.251.28-.383.426l-.016.015-.013.016-.016.013-.015.016-.014.015-.015.015-.015.014-.029.03v.014a42.65 42.65 0 01-4.523 4.125 39.942 39.942 0 01-7.838 4.701 1.346 1.346 0 01-1.522-.295c-.65-.56-1.253-1.135-1.857-1.71a39.374 39.374 0 01-1.826-1.9 41.462 41.462 0 01-1.208-1.355c-.397-.472-.78-.944-1.148-1.4a63.446 63.446 0 01-1.43-1.93 46.478 46.478 0 01-1.325-1.989 72.499 72.499 0 01-1.003-1.635c-.304-.56-.619-1.12-.912-1.674a43.648 43.648 0 01-1.076-2.15c-.34-.722-.633-1.446-.942-2.197a45.533 45.533 0 01-1.474-4.199 45.509 45.509 0 01-1.064-4.33 1.317 1.317 0 01.619-1.4 40.549 40.549 0 015.406-3.242c.073.707.163 1.4.28 2.091.029.236.073.472.117.708a35.263 35.263 0 00-3.623 2.18 43.474 43.474 0 002.21 7.182c.28.692.574 1.384.898 2.077.324.692.65 1.369 1.002 2.018.28.547.575 1.065.87 1.592.294.486.609 1.002.942 1.547.414.648.826 1.282 1.253 1.87.428.59.884 1.218 1.356 1.814a37 37 0 001.089 1.34c.399.472.782.913 1.12 1.281.546.59 1.12 1.18 1.739 1.783.383.384.781.752 1.163 1.106a36.378 36.378 0 006.277-3.846 37.092 37.092 0 007.529-7.66l.004-.005zm16.223-13.844a1.35 1.35 0 01.633 1.4 48.89 48.89 0 01-2.535 8.53 1.208 1.208 0 01-.236.37 1.346 1.346 0 01-1.884.151 28.939 28.939 0 00-3.154-2.386 28.462 28.462 0 00-3.39-1.9 1.351 1.351 0 01-.72-1.674 34.37 34.37 0 001.104-3.786c.132-.5.236-1.003.34-1.521.338.132.663.266 1.002.412.5.222 1 .456 1.501.694a26.45 26.45 0 01-.236 1.03c-.234.988-.5 1.979-.809 2.948a32.588 32.588 0 012.68 1.56 36.69 36.69 0 011.961 1.4c.265-.736.516-1.488.737-2.253.324-1.047.588-2.13.84-3.227a35.976 35.976 0 00-6.145-3.374 38.094 38.094 0 00-4.066-1.489 34.996 34.996 0 00-3.846-.928 42.343 42.343 0 00-2.814-.397 36.89 36.89 0 00-2.843-.192l-.53-.015h-1.031l-.516.015c-.943.03-1.901.088-2.845.192-.943.103-1.9.236-2.828.397-1.282.236-2.563.56-3.845.928-.487.152-.972.304-1.46.472-.043-.28-.088-.545-.116-.825a24.66 24.66 0 01-.192-1.886 39.125 39.125 0 0112.322-1.978A40.089 40.089 0 0139.227 11a39.46 39.46 0 017.824 4.361l-.004-.005zM22.5 27.01c-.22-.28-.412-.531-.589-.752a33.002 33.002 0 01-3.55-6.16c-.133-.293-.267-.588-.384-.883a19.337 19.337 0 01-.304-.825 1.255 1.255 0 01-.088-.304 1.327 1.327 0 011.09-1.545c.28-.06.609-.104.944-.153l.956-.134c.59-.057 1.18-.101 1.783-.152.604-.05 1.217-.044 1.77-.044.552 0 1.148.014 1.78.044.61.044 1.195.089 1.77.152l.957.134c.354.044.663.089.958.152a1.343 1.343 0 011.031 1.768c-.118.305-.235.618-.354.913-.118.295-.235.59-.368.884a33.232 33.232 0 01-1.606 3.169 30.625 30.625 0 01-2.533 3.742c-.251.304-.443.56-.609.736a1.028 1.028 0 01-.178.177 1.316 1.316 0 01-1.87-.177c-.221-.25-.413-.487-.61-.736l.004-.006z" fill="#8896AB"/></g><path d="M61.99 19.152c.942-1.466 2.6-2.2 4.974-2.2v3.116a4.159 4.159 0 00-.759-.078c-1.274 0-2.269.375-2.985 1.126-.715.733-1.073 1.797-1.073 3.194v6.78h-3.273V17.11h3.116v2.042zm20.766 5.027c0 .227-.017.55-.052.969h-10.97c.192 1.03.689 1.85 1.492 2.46.82.594 1.833.89 3.037.89 1.536 0 2.801-.505 3.796-1.518l1.755 2.016a5.922 5.922 0 01-2.383 1.702c-.96.384-2.042.576-3.247.576-1.536 0-2.888-.305-4.058-.916s-2.077-1.458-2.723-2.54c-.628-1.1-.942-2.339-.942-3.718 0-1.361.305-2.583.916-3.665a6.66 6.66 0 012.592-2.566c1.1-.61 2.34-.916 3.718-.916 1.361 0 2.575.305 3.64.916a6.182 6.182 0 012.513 2.54c.61 1.082.916 2.338.916 3.77zm-7.069-4.608c-1.047 0-1.938.314-2.67.942-.716.611-1.153 1.432-1.31 2.461h7.933c-.14-1.012-.567-1.832-1.282-2.46-.716-.629-1.606-.943-2.671-.943zM90.22 31.274c-1.135 0-2.243-.148-3.325-.445-1.083-.297-1.947-.672-2.592-1.126l1.256-2.487c.629.419 1.38.76 2.252 1.021a9.88 9.88 0 002.618.367c1.955 0 2.933-.515 2.933-1.545 0-.489-.254-.83-.76-1.021-.489-.192-1.283-.376-2.382-.55-1.152-.175-2.095-.375-2.828-.602a4.476 4.476 0 01-1.885-1.178c-.524-.576-.785-1.37-.785-2.383 0-1.327.55-2.383 1.649-3.168 1.117-.803 2.618-1.204 4.503-1.204.96 0 1.92.113 2.88.34.96.21 1.746.497 2.357.864l-1.257 2.487c-1.187-.698-2.522-1.047-4.006-1.047-.96 0-1.693.148-2.2.445-.488.28-.732.655-.732 1.126 0 .524.261.899.785 1.126.541.21 1.37.41 2.487.602 1.117.174 2.034.375 2.75.602a4.21 4.21 0 011.832 1.152c.524.541.786 1.31.786 2.304 0 1.31-.568 2.356-1.702 3.142-1.135.785-2.68 1.178-4.634 1.178zm22.297-7.095c0 .227-.017.55-.052.969h-10.97c.192 1.03.689 1.85 1.492 2.46.821.594 1.833.89 3.037.89 1.536 0 2.802-.505 3.797-1.518l1.754 2.016c-.628.75-1.423 1.318-2.383 1.702-.96.384-2.042.576-3.246.576-1.536 0-2.889-.305-4.058-.916-1.17-.611-2.078-1.458-2.723-2.54-.629-1.1-.943-2.339-.943-3.718 0-1.361.306-2.583.916-3.665a6.658 6.658 0 012.593-2.566c1.099-.61 2.338-.916 3.717-.916 1.362 0 2.575.305 3.64.916a6.179 6.179 0 012.513 2.54c.611 1.082.916 2.338.916 3.77zm-7.069-4.608c-1.047 0-1.937.314-2.67.942-.716.611-1.152 1.432-1.309 2.461h7.933c-.14-1.012-.567-1.832-1.283-2.46-.716-.629-1.606-.943-2.671-.943zm16.628 11.703c-1.449 0-2.749-.305-3.901-.916-1.152-.611-2.051-1.458-2.697-2.54-.646-1.1-.969-2.339-.969-3.718s.323-2.61.969-3.691a6.804 6.804 0 012.67-2.54c1.152-.61 2.461-.916 3.928-.916 1.379 0 2.583.279 3.613.837a5.422 5.422 0 012.356 2.41l-2.513 1.465c-.402-.645-.908-1.125-1.519-1.44a3.956 3.956 0 00-1.964-.497c-1.221 0-2.234.401-3.037 1.204-.803.786-1.204 1.842-1.204 3.168 0 1.327.393 2.391 1.178 3.194.803.786 1.824 1.179 3.063 1.179a4.13 4.13 0 001.964-.472c.611-.331 1.117-.82 1.519-1.466l2.513 1.466a5.724 5.724 0 01-2.382 2.435c-1.03.559-2.226.838-3.587.838zM144.41 17.11v13.98h-3.115v-1.78a5.34 5.34 0 01-1.964 1.467 6.465 6.465 0 01-2.54.497c-1.867 0-3.342-.515-4.424-1.545-1.065-1.047-1.598-2.592-1.598-4.634V17.11h3.273v7.54c0 1.257.279 2.2.838 2.828.576.61 1.388.916 2.435.916 1.169 0 2.094-.358 2.775-1.073.698-.734 1.047-1.78 1.047-3.142v-7.07h3.273zm7.401 2.042c.942-1.466 2.601-2.2 4.974-2.2v3.116a4.154 4.154 0 00-.759-.078c-1.274 0-2.269.375-2.985 1.126-.715.733-1.073 1.797-1.073 3.194v6.78h-3.273V17.11h3.116v2.042zm15.5-2.199c1.362 0 2.575.296 3.64.89a6.396 6.396 0 012.539 2.513c.611 1.082.917 2.33.917 3.744 0 1.414-.306 2.67-.917 3.77a6.396 6.396 0 01-2.539 2.514c-1.065.593-2.278.89-3.64.89-.96 0-1.841-.166-2.644-.497a5.086 5.086 0 01-1.99-1.493v1.807h-3.115V11.664h3.272v7.147a5.525 5.525 0 011.964-1.387 6.575 6.575 0 012.513-.471zm-.366 11.52c1.204 0 2.19-.402 2.958-1.205.786-.803 1.179-1.859 1.179-3.168 0-1.309-.393-2.365-1.179-3.168-.768-.803-1.754-1.204-2.958-1.204-.786 0-1.492.183-2.121.55a3.787 3.787 0 00-1.492 1.518c-.367.663-.55 1.431-.55 2.304 0 .873.183 1.641.55 2.304a3.97 3.97 0 001.492 1.545c.629.35 1.335.524 2.121.524z" fill="#8896AB"/><defs><clipPath id="clip0_2451_14102"><path fill="#fff" d="M0 0h48v43.636H0z"/></clipPath></defs></svg>