<svg width="155" height="44" fill="none" xmlns="http://www.w3.org/2000/svg"><path d="M52.481 14.548c0 7.855 8.444 8.915 8.444 14.57 0 1.964-.864 2.671-2.238 2.671-1.375 0-2.239-.707-2.239-2.67v-1.964h-4.084v1.689c0 4.398 2.199 6.912 6.44 6.912 4.242 0 6.441-2.514 6.441-6.912 0-7.855-8.444-8.915-8.444-14.57 0-1.964.786-2.71 2.16-2.71 1.375 0 2.16.746 2.16 2.71v1.138h4.085v-.864c0-4.398-2.16-6.912-6.362-6.912-4.203 0-6.363 2.514-6.363 6.912zm19.016 20.893h4.32v-9.11l5.459-18.38h-4.124l-3.299 12.527-3.299-12.527h-4.516l5.459 18.38v9.11zM88.992 7.95h-6.008v27.491h3.77v-19.44l3.22 19.44h4.084l2.985-19.715v19.715h4.084V7.951h-6.008l-2.946 19.518-3.18-19.518zm14.021 3.928h4.517V35.44h4.32V11.878h4.516V7.95h-13.353v3.927zM131.7 35.441c-.432-1.02-.471-2.003-.471-3.338v-4.241c0-2.867-.707-4.949-2.867-5.852 1.924-.903 2.827-2.749 2.827-5.577v-2.16c0-4.241-1.924-6.322-6.401-6.322h-6.519v27.49h4.32V24.25h1.492c1.964 0 2.828.942 2.828 3.495v4.32c0 2.239.157 2.67.392 3.377h4.399zm-7.03-23.563c1.532 0 2.199.864 2.199 2.827v2.71c0 2.2-.982 2.906-2.592 2.906h-1.688v-8.443h2.081zm9.4 23.563h4.32V7.951h-4.32v27.49zm15.922-10.25v3.928c0 1.963-.864 2.67-2.239 2.67-1.374 0-2.238-.707-2.238-2.67V14.273c0-1.963.864-2.71 2.238-2.71 1.375 0 2.239.747 2.239 2.71v2.946h4.084v-2.67c0-4.4-2.199-6.913-6.44-6.913-4.242 0-6.441 2.514-6.441 6.912v14.296c0 4.398 2.199 6.912 6.441 6.912 4.241 0 6.44-2.514 6.44-6.912V25.19h-4.084z" fill="#8896AB"/><g clip-path="url(#clip0_2451_14100)"><path fill-rule="evenodd" clip-rule="evenodd" d="M14.843 13.835l-2.36 4.081-2.246-3.896 2.348-4.081h16.407l3.484-6.043H9.1l-4.607 7.99c3.456 5.97 6.906 11.941 10.351 17.911h6.968c-1.75-3.029-3.5-6.058-5.247-9.086l-.485-.838h15.968l6.868 11.891-6.867 11.872H6.852L.056 31.65l3.413-5.928 2.26 3.894-1.222 2.134 4.607 7.99h20.674l4.622-7.99-4.607-7.991h-6.968c1.478 2.574 2.957 5.147 4.437 7.72l.167.266-1.123 1.948H12.597A45587.2 45587.2 0 01.156 12.167L0 11.882 6.853-.008H39.24l-7.985 13.843H14.843z" fill="#8896AB"/></g><defs><clipPath id="clip0_2451_14100"><path fill="#fff" d="M0 0h39.242v43.636H0z"/></clipPath></defs></svg>