<svg width="186" height="44" fill="none" xmlns="http://www.w3.org/2000/svg"><g clip-path="url(#clip0_2451_14103)"><path fill-rule="evenodd" clip-rule="evenodd" d="M4.489 40.849l3.826-2.194 1.536-.882 1.509-.87 2.366-1.356 3.759-2.146 3.762 2.146 2.363 1.357 1.508.87 1.54.88 3.747 2.163 1.139.646 1.11.634 2.255 1.292V22.623l-4.504-2.589v15.64l-3.049-1.754-4.493-2.57-1.712-.996-1.412-.798V3.767h-4.505V30.17l-3.128 1.8-4.489 2.588-3.128 1.783V20.066l-4.49 2.573v20.782l2.24-1.292 1.122-.634 1.128-.646zm22.863-10.511V-.892H22.86v28.66l4.492 2.57zm-15.242-1.97V8.422H7.62v22.533l4.489-2.589z" fill="#8896AB"/></g><path d="M53.941 31.091h3.924l3.616-12.45h.15l3.625 12.45h3.924l5.448-19.041H70.23l-3.15 13.258h-.168L63.443 12.05h-3.765L56.2 25.28h-.158l-3.151-13.23h-4.398l5.447 19.04zm22.842 0H89.65v-3.32h-8.842v-4.546h8.144v-3.319H80.81V15.37h8.804v-3.32h-12.83v19.042zm16.031 0h12.189v-3.32H96.84V12.05h-4.026v19.04zm11.311-19.041l6.945 12.31v6.731h3.998V24.36l6.945-12.31h-4.509l-4.342 8.2h-.186l-4.342-8.2h-4.509zm20.563 3.319h5.83V31.09h3.979V15.369h5.83v-3.32h-15.639v3.32zm22.24-3.319h-4.026v19.04h4.026V12.05zm20.113 6.666c-.53-4.398-3.859-6.927-8.266-6.927-5.03 0-8.869 3.552-8.869 9.781 0 6.211 3.774 9.781 8.869 9.781 4.882 0 7.829-3.244 8.266-6.75l-4.072-.018c-.382 2.036-1.981 3.207-4.129 3.207-2.891 0-4.853-2.147-4.853-6.22 0-3.96 1.934-6.22 4.881-6.22 2.204 0 3.794 1.274 4.101 3.366h4.072zm13.216-1.19h3.859c-.056-3.394-2.845-5.737-7.085-5.737-4.175 0-7.233 2.306-7.215 5.765-.009 2.808 1.971 4.416 5.188 5.188l2.074.52c2.073.503 3.226 1.098 3.235 2.38-.009 1.395-1.329 2.344-3.375 2.344-2.092 0-3.598-.967-3.728-2.873h-3.896c.102 4.119 3.05 6.248 7.671 6.248 4.648 0 7.382-2.223 7.391-5.71-.009-3.17-2.399-4.852-5.709-5.596l-1.71-.41c-1.655-.38-3.041-.994-3.013-2.36 0-1.228 1.088-2.13 3.059-2.13 1.925 0 3.106.874 3.254 2.37z" fill="#8896AB"/><defs><clipPath id="clip0_2451_14103"><path fill="#fff" d="M0 0h34.909v43.636H0z"/></clipPath></defs></svg>