<svg width="183" height="48" fill="none" xmlns="http://www.w3.org/2000/svg"><g clip-path="url(#clip0_2451_14101)" fill-rule="evenodd" clip-rule="evenodd" fill="#8896AB"><path d="M26.71 47.085a23.228 23.228 0 0020.377-20.378h-8.73a14.628 14.628 0 01-11.648 11.629v8.75z"/><path d="M34.465 3.246l.054-.036c5.65-3.246 10.218-4.2 12.345-2.072 6.017 6.015-10.95 24.725-15.977 29.751a106.161 106.161 0 01-9.592 8.522v7.669a22.84 22.84 0 01-7.765-2.33l-.055.036c-5.65 3.246-10.216 4.2-12.344 2.083-2.917-2.916.496-9.63 2.11-12.4a23.228 23.228 0 01-2.33-7.765h8.75a14.602 14.602 0 006.86 9.83 48.09 48.09 0 01-3.101 2.084 56.497 56.497 0 01-4.843 2.769 22.695 22.695 0 01-3.484-3.888c-1.762 3.393-2.349 5.888-1.413 6.817 4.017 3.978 22.084-12.618 25.056-15.59a105.301 105.301 0 008.86-10.052A14.592 14.592 0 0026.7 9.649V.9a22.714 22.714 0 017.765 2.33v.017zm8.437 7.246c1.761-3.394 2.348-5.888 1.413-6.818-.936-.93-3.41-.33-6.805 1.432a22.774 22.774 0 015.392 5.392v-.006z"/><path d="M21.298.917A23.23 23.23 0 00.92 21.297h8.75a14.582 14.582 0 0111.628-11.63V.916z"/></g><path d="M87.614 29.557a7.165 7.165 0 01-.58 2.863 7.281 7.281 0 01-3.903 3.904 7.23 7.23 0 01-2.847.562 7.36 7.36 0 01-2.625-.477 7.045 7.045 0 01-2.25-1.398 7 7 0 01-2.267 1.398 7.356 7.356 0 01-2.625.477 7.354 7.354 0 01-2.864-.562 7.67 7.67 0 01-2.335-1.568 7.671 7.671 0 01-1.568-2.336 7.354 7.354 0 01-.563-2.863V12.102h4.892v17.455c0 .34.063.665.188.971.125.296.296.557.511.785.228.215.489.386.784.51.296.126.614.188.955.188a2.424 2.424 0 001.722-.699c.227-.227.403-.488.528-.784a2.55 2.55 0 00.188-.971V12.102h4.892v17.455c0 .34.062.665.187.971a2.6 2.6 0 00.511.785c.228.215.49.386.784.51.296.126.614.188.955.188a2.424 2.424 0 001.722-.699c.227-.227.403-.488.528-.784.136-.306.205-.63.205-.971V12.102h4.875v17.455zm9.375-16.227c0 .431-.086.835-.256 1.21-.16.375-.38.704-.665.988-.284.273-.62.495-1.005.665-.376.16-.779.239-1.21.239-.432 0-.842-.08-1.228-.239a3.516 3.516 0 01-.989-.665 3.511 3.511 0 01-.664-.988 3.066 3.066 0 01-.239-1.21c0-.42.08-.819.239-1.194a3.092 3.092 0 011.653-1.653c.386-.17.796-.256 1.227-.256.432 0 .835.085 1.21.256.387.159.722.38 1.006.665.284.272.506.602.665.988.17.375.256.773.256 1.194zm-.802 23.215H91.5V18.29h4.688v18.255zm13.586 0H99.136V31.91h10.637c.318 0 .591-.114.818-.34.227-.228.341-.5.341-.819 0-.33-.114-.546-.341-.648a1.982 1.982 0 00-.818-.153h-4.841a5.613 5.613 0 01-2.267-.46 5.914 5.914 0 01-1.841-1.245 6.126 6.126 0 01-1.245-1.858 5.804 5.804 0 01-.443-2.267c0-.806.148-1.562.444-2.267a5.911 5.911 0 011.244-1.84 5.678 5.678 0 011.841-1.228 5.613 5.613 0 012.267-.46h9.426v4.636h-9.426c-.318 0-.591.114-.818.341-.228.227-.341.5-.341.818 0 .33.113.614.341.853.227.227.5.34.818.34h4.841c.795 0 1.545.137 2.25.41a5.58 5.58 0 011.841 1.107 5.286 5.286 0 011.244 1.722c.307.67.46 1.404.46 2.199a5.61 5.61 0 01-.46 2.267 6.207 6.207 0 01-1.244 1.84 5.925 5.925 0 01-1.841 1.245 5.763 5.763 0 01-2.25.443zm12.937 0h-4.653V11.028h4.653v8.063a5.296 5.296 0 011.722-.887 6.11 6.11 0 011.807-.272 7.83 7.83 0 013.17.648 7.786 7.786 0 012.574 1.755 8.073 8.073 0 011.739 2.608 7.85 7.85 0 01.647 3.17v10.432h-4.687V26.114h.034c0-.478-.091-.927-.273-1.347a3.492 3.492 0 00-1.858-1.875 3.353 3.353 0 00-1.346-.273 3.523 3.523 0 00-2.506 1.023 3.492 3.492 0 00-.75 1.125c-.182.42-.273.87-.273 1.347v10.431zm22.245-4.465c.181.056.363.096.545.119.182.011.364.017.545.017a4.58 4.58 0 001.313-.188c.42-.125.812-.3 1.176-.528a4.517 4.517 0 001.705-1.977l3.409 3.426a9.031 9.031 0 01-1.5 1.653 9.087 9.087 0 01-1.824 1.245 8.638 8.638 0 01-2.063.767 8.965 8.965 0 01-2.216.272 9.275 9.275 0 01-3.63-.716 9.272 9.272 0 01-2.966-1.994 9.439 9.439 0 01-1.994-3.034c-.489-1.182-.733-2.477-.733-3.886 0-1.444.244-2.762.733-3.955.488-1.193 1.153-2.21 1.994-3.051a9.18 9.18 0 012.966-1.96 9.473 9.473 0 013.63-.7c.762 0 1.506.092 2.233.274a9.198 9.198 0 012.063.784c.659.34 1.273.761 1.841 1.261a9.028 9.028 0 011.5 1.654l-8.727 10.517zm2.386-9.597a2.689 2.689 0 00-.648-.154 5.866 5.866 0 00-.648-.034c-.636 0-1.238.12-1.806.358a4.28 4.28 0 00-1.466.989 4.765 4.765 0 00-.972 1.568c-.239.602-.358 1.284-.358 2.046 0 .17.006.363.017.58.023.215.051.437.085.664.046.216.097.426.154.63.057.205.131.387.221.546l5.421-7.193zm13.381 14.062h-4.688V11.028h4.688v25.517zm8.25 6.955h-4.688V18.29h1.125l1.858 2.199c.421-.398.881-.773 1.381-1.125.5-.353 1.017-.654 1.551-.904a9.096 9.096 0 011.687-.613 7.087 7.087 0 011.756-.222 9.35 9.35 0 013.614.699 8.734 8.734 0 012.966 1.943c.852.84 1.522 1.858 2.011 3.051.489 1.182.733 2.494.733 3.938 0 1.5-.244 2.852-.733 4.056-.489 1.194-1.159 2.21-2.011 3.052a8.649 8.649 0 01-2.966 1.909 9.772 9.772 0 01-3.614.664 5.64 5.64 0 01-1.227-.136 9.464 9.464 0 01-1.193-.358 17.502 17.502 0 01-1.16-.528 25.139 25.139 0 01-1.09-.597V43.5zm9.323-16.244c0-.773-.125-1.466-.375-2.08a4.427 4.427 0 00-.988-1.551 4.253 4.253 0 00-1.483-.989 4.82 4.82 0 00-1.807-.34 4.82 4.82 0 00-1.807.34 4.288 4.288 0 00-1.466.989 4.64 4.64 0 00-1.005 1.551c-.239.614-.358 1.307-.358 2.08 0 .738.119 1.414.358 2.028.25.614.585 1.136 1.005 1.568.421.432.909.767 1.466 1.006a4.619 4.619 0 001.807.358c.636 0 1.239-.12 1.807-.358a4.46 4.46 0 001.483-1.006c.42-.432.75-.954.988-1.568a5.33 5.33 0 00.375-2.028z" fill="#8896AB"/><defs><clipPath id="clip0_2451_14101"><path fill="#fff" d="M0 0h48.142v48H0z"/></clipPath></defs></svg>