<svg width="1140" height="290" viewBox="0 0 1140 290" fill="none" xmlns="http://www.w3.org/2000/svg">
<g clip-path="url(#clip0_2454_14374)">
<line x1="1314" y1="1.5" x2="-174" y2="1.5" stroke="#2C3544"/>
<line x1="1314" y1="25.5" x2="-174" y2="25.5" stroke="#2C3544"/>
<line x1="1314" y1="49.5" x2="-174" y2="49.5" stroke="#2C3544"/>
<line x1="1314" y1="73.5" x2="-174" y2="73.5" stroke="#2C3544"/>
<line x1="1314" y1="97.5" x2="-174" y2="97.5" stroke="#2C3544"/>
<line x1="1314" y1="121.5" x2="-174" y2="121.5" stroke="#2C3544"/>
<line x1="1314" y1="145.5" x2="-174" y2="145.5" stroke="#2C3544"/>
<line x1="1314" y1="169.5" x2="-174" y2="169.5" stroke="#2C3544"/>
<line x1="1314" y1="193.5" x2="-174" y2="193.5" stroke="#2C3544"/>
<line x1="1314" y1="217.5" x2="-174" y2="217.5" stroke="#2C3544"/>
<line x1="1314" y1="241.5" x2="-174" y2="241.5" stroke="#2C3544"/>
<line x1="1314" y1="265.5" x2="-174" y2="265.5" stroke="#2C3544"/>
<line x1="1314" y1="289.5" x2="-174" y2="289.5" stroke="#2C3544"/>
<line x1="18.5001" y1="-239" x2="18.5" y2="481" stroke="#2C3544"/>
<line x1="42.5001" y1="-239" x2="42.5" y2="481" stroke="#2C3544"/>
<line x1="66.5" y1="-239" x2="66.5" y2="481" stroke="#2C3544"/>
<line x1="90.5" y1="-239" x2="90.5" y2="481" stroke="#2C3544"/>
<line x1="114.5" y1="-239" x2="114.5" y2="481" stroke="#2C3544"/>
<line x1="138.5" y1="-239" x2="138.5" y2="481" stroke="#2C3544"/>
<line x1="162.5" y1="-239" x2="162.5" y2="481" stroke="#2C3544"/>
<line x1="186.5" y1="-239" x2="186.5" y2="481" stroke="#2C3544"/>
<line x1="210.5" y1="-239" x2="210.5" y2="481" stroke="#2C3544"/>
<line x1="234.5" y1="-239" x2="234.5" y2="481" stroke="#2C3544"/>
<line x1="258.5" y1="-239" x2="258.5" y2="481" stroke="#2C3544"/>
<line x1="282.5" y1="-239" x2="282.5" y2="481" stroke="#2C3544"/>
<line x1="306.5" y1="-239" x2="306.5" y2="481" stroke="#2C3544"/>
<line x1="330.5" y1="-239" x2="330.5" y2="481" stroke="#2C3544"/>
<line x1="354.5" y1="-239" x2="354.5" y2="481" stroke="#2C3544"/>
<line x1="378.5" y1="-239" x2="378.5" y2="481" stroke="#2C3544"/>
<line x1="402.5" y1="-239" x2="402.5" y2="481" stroke="#2C3544"/>
<line x1="426.5" y1="-239" x2="426.5" y2="481" stroke="#2C3544"/>
<line x1="450.5" y1="-239" x2="450.5" y2="481" stroke="#2C3544"/>
<line x1="474.5" y1="-239" x2="474.5" y2="481" stroke="#2C3544"/>
<line x1="498.5" y1="-239" x2="498.5" y2="481" stroke="#2C3544"/>
<line x1="522.5" y1="-239" x2="522.5" y2="481" stroke="#2C3544"/>
<line x1="546.5" y1="-239" x2="546.5" y2="481" stroke="#2C3544"/>
<line x1="570.5" y1="-239" x2="570.5" y2="481" stroke="#2C3544"/>
<line x1="594.5" y1="-239" x2="594.5" y2="481" stroke="#2C3544"/>
<line x1="618.5" y1="-239" x2="618.5" y2="481" stroke="#2C3544"/>
<line x1="642.5" y1="-239" x2="642.5" y2="481" stroke="#2C3544"/>
<line x1="666.5" y1="-239" x2="666.5" y2="481" stroke="#2C3544"/>
<line x1="690.5" y1="-239" x2="690.5" y2="481" stroke="#2C3544"/>
<line x1="714.5" y1="-239" x2="714.5" y2="481" stroke="#2C3544"/>
<line x1="738.5" y1="-239" x2="738.5" y2="481" stroke="#2C3544"/>
<line x1="762.5" y1="-239" x2="762.5" y2="481" stroke="#2C3544"/>
<line x1="786.5" y1="-239" x2="786.5" y2="481" stroke="#2C3544"/>
<line x1="810.5" y1="-239" x2="810.5" y2="481" stroke="#2C3544"/>
<line x1="834.5" y1="-239" x2="834.5" y2="481" stroke="#2C3544"/>
<line x1="858.5" y1="-239" x2="858.5" y2="481" stroke="#2C3544"/>
<line x1="882.5" y1="-239" x2="882.5" y2="481" stroke="#2C3544"/>
<line x1="906.5" y1="-239" x2="906.5" y2="481" stroke="#2C3544"/>
<line x1="930.5" y1="-239" x2="930.5" y2="481" stroke="#2C3544"/>
<line x1="954.5" y1="-239" x2="954.5" y2="481" stroke="#2C3544"/>
<line x1="978.5" y1="-239" x2="978.5" y2="481" stroke="#2C3544"/>
<line x1="1002.5" y1="-239" x2="1002.5" y2="481" stroke="#2C3544"/>
<line x1="1026.5" y1="-239" x2="1026.5" y2="481" stroke="#2C3544"/>
<line x1="1050.5" y1="-239" x2="1050.5" y2="481" stroke="#2C3544"/>
<line x1="1074.5" y1="-239" x2="1074.5" y2="481" stroke="#2C3544"/>
<line x1="1098.5" y1="-239" x2="1098.5" y2="481" stroke="#2C3544"/>
<line x1="1122.5" y1="-239" x2="1122.5" y2="481" stroke="#2C3544"/>
</g>
<defs>
<clipPath id="clip0_2454_14374">
<rect width="1440" height="720" fill="white" transform="translate(-150 -239)"/>
</clipPath>
</defs>
</svg>
