<svg width="1395" height="380" viewBox="0 0 1395 380" fill="none" xmlns="http://www.w3.org/2000/svg">
<g opacity="0.4">
<rect width="1440" height="1320" transform="translate(-69 -452)" fill="#2A3342"/>
<line x1="1395" y1="220.5" x2="-93" y2="220.5" stroke="#333F51"/>
<line x1="1395" y1="244.5" x2="-93" y2="244.5" stroke="#333F51"/>
<line x1="1395" y1="268.5" x2="-93" y2="268.5" stroke="#333F51"/>
<line x1="1395" y1="292.5" x2="-93" y2="292.5" stroke="#333F51"/>
<line x1="1395" y1="316.5" x2="-93" y2="316.5" stroke="#333F51"/>
<line x1="1395" y1="340.5" x2="-93" y2="340.5" stroke="#333F51"/>
<line x1="1395" y1="364.5" x2="-93" y2="364.5" stroke="#333F51"/>
<line x1="3.5" y1="196" x2="3.49997" y2="916" stroke="#333F51"/>
<line x1="27.5" y1="196" x2="27.5" y2="916" stroke="#333F51"/>
<line x1="51.5" y1="196" x2="51.5" y2="916" stroke="#333F51"/>
<line x1="75.5" y1="196" x2="75.5" y2="916" stroke="#333F51"/>
<line x1="99.5" y1="196" x2="99.5" y2="916" stroke="#333F51"/>
<line x1="123.5" y1="196" x2="123.5" y2="916" stroke="#333F51"/>
<line x1="147.5" y1="196" x2="147.5" y2="916" stroke="#333F51"/>
<line x1="171.5" y1="196" x2="171.5" y2="916" stroke="#333F51"/>
<line x1="195.5" y1="196" x2="195.5" y2="916" stroke="#333F51"/>
<line x1="219.5" y1="196" x2="219.5" y2="916" stroke="#333F51"/>
<line x1="243.5" y1="196" x2="243.5" y2="916" stroke="#333F51"/>
<line x1="267.5" y1="196" x2="267.5" y2="916" stroke="#333F51"/>
<line x1="291.5" y1="196" x2="291.5" y2="916" stroke="#333F51"/>
<line x1="315.5" y1="196" x2="315.5" y2="916" stroke="#333F51"/>
<line x1="339.5" y1="196" x2="339.5" y2="916" stroke="#333F51"/>
<line x1="363.5" y1="196" x2="363.5" y2="916" stroke="#333F51"/>
<line x1="387.5" y1="196" x2="387.5" y2="916" stroke="#333F51"/>
<line x1="411.5" y1="196" x2="411.5" y2="916" stroke="#333F51"/>
<line x1="435.5" y1="196" x2="435.5" y2="916" stroke="#333F51"/>
<line x1="459.5" y1="196" x2="459.5" y2="916" stroke="#333F51"/>
<line x1="483.5" y1="196" x2="483.5" y2="916" stroke="#333F51"/>
<line x1="507.5" y1="196" x2="507.5" y2="916" stroke="#333F51"/>
<line x1="531.5" y1="196" x2="531.5" y2="916" stroke="#333F51"/>
<line x1="555.5" y1="196" x2="555.5" y2="916" stroke="#333F51"/>
<line x1="579.5" y1="196" x2="579.5" y2="916" stroke="#333F51"/>
<line x1="603.5" y1="196" x2="603.5" y2="916" stroke="#333F51"/>
<line x1="627.5" y1="196" x2="627.5" y2="916" stroke="#333F51"/>
<line x1="651.5" y1="196" x2="651.5" y2="916" stroke="#333F51"/>
<line x1="675.5" y1="196" x2="675.5" y2="916" stroke="#333F51"/>
<line x1="699.5" y1="196" x2="699.5" y2="916" stroke="#333F51"/>
<line x1="723.5" y1="196" x2="723.5" y2="916" stroke="#333F51"/>
<line x1="747.5" y1="196" x2="747.5" y2="916" stroke="#333F51"/>
<line x1="771.5" y1="196" x2="771.5" y2="916" stroke="#333F51"/>
<line x1="795.5" y1="196" x2="795.5" y2="916" stroke="#333F51"/>
<line x1="819.5" y1="196" x2="819.5" y2="916" stroke="#333F51"/>
<line x1="843.5" y1="196" x2="843.5" y2="916" stroke="#333F51"/>
<line x1="867.5" y1="196" x2="867.5" y2="916" stroke="#333F51"/>
<line x1="891.5" y1="196" x2="891.5" y2="916" stroke="#333F51"/>
<line x1="915.5" y1="196" x2="915.5" y2="916" stroke="#333F51"/>
<line x1="939.5" y1="196" x2="939.5" y2="916" stroke="#333F51"/>
<line x1="963.5" y1="196" x2="963.5" y2="916" stroke="#333F51"/>
<line x1="987.5" y1="196" x2="987.5" y2="916" stroke="#333F51"/>
<line x1="1011.5" y1="196" x2="1011.5" y2="916" stroke="#333F51"/>
<line x1="1035.5" y1="196" x2="1035.5" y2="916" stroke="#333F51"/>
<line x1="1059.5" y1="196" x2="1059.5" y2="916" stroke="#333F51"/>
<line x1="1083.5" y1="196" x2="1083.5" y2="916" stroke="#333F51"/>
<line x1="1107.5" y1="196" x2="1107.5" y2="916" stroke="#333F51"/>
<line x1="1131.5" y1="196" x2="1131.5" y2="916" stroke="#333F51"/>
<line x1="1155.5" y1="196" x2="1155.5" y2="916" stroke="#333F51"/>
<line x1="1179.5" y1="196" x2="1179.5" y2="916" stroke="#333F51"/>
<line x1="1203.5" y1="196" x2="1203.5" y2="916" stroke="#333F51"/>
<line x1="1227.5" y1="196" x2="1227.5" y2="916" stroke="#333F51"/>
<line x1="1251.5" y1="196" x2="1251.5" y2="916" stroke="#333F51"/>
<line x1="1275.5" y1="196" x2="1275.5" y2="916" stroke="#333F51"/>
<line x1="1299.5" y1="196" x2="1299.5" y2="916" stroke="#333F51"/>
<line x1="1323.5" y1="196" x2="1323.5" y2="916" stroke="#333F51"/>
<line x1="1347.5" y1="196" x2="1347.5" y2="916" stroke="#333F51"/>
<line x1="1371.5" y1="196" x2="1371.5" y2="916" stroke="#333F51"/>
<line x1="1395" y1="4.5" x2="-93" y2="4.5" stroke="#333F51"/>
<line x1="1395" y1="28.5" x2="-93" y2="28.5" stroke="#333F51"/>
<line x1="1395" y1="52.5" x2="-93" y2="52.5" stroke="#333F51"/>
<line x1="1395" y1="76.5" x2="-93" y2="76.5" stroke="#333F51"/>
<line x1="1395" y1="100.5" x2="-93" y2="100.5" stroke="#333F51"/>
<line x1="1395" y1="124.5" x2="-93" y2="124.5" stroke="#333F51"/>
<line x1="1395" y1="148.5" x2="-93" y2="148.5" stroke="#333F51"/>
<line x1="1395" y1="172.5" x2="-93" y2="172.5" stroke="#333F51"/>
<line x1="1395" y1="196.5" x2="-93" y2="196.5" stroke="#333F51"/>
<line x1="3.5" y1="-500" x2="3.49997" y2="220" stroke="#333F51"/>
<line x1="27.5" y1="-500" x2="27.5" y2="220" stroke="#333F51"/>
<line x1="51.5" y1="-500" x2="51.5" y2="220" stroke="#333F51"/>
<line x1="75.5" y1="-500" x2="75.5" y2="220" stroke="#333F51"/>
<line x1="99.5" y1="-500" x2="99.5" y2="220" stroke="#333F51"/>
<line x1="123.5" y1="-500" x2="123.5" y2="220" stroke="#333F51"/>
<line x1="147.5" y1="-500" x2="147.5" y2="220" stroke="#333F51"/>
<line x1="171.5" y1="-500" x2="171.5" y2="220" stroke="#333F51"/>
<line x1="195.5" y1="-500" x2="195.5" y2="220" stroke="#333F51"/>
<line x1="219.5" y1="-500" x2="219.5" y2="220" stroke="#333F51"/>
<line x1="243.5" y1="-500" x2="243.5" y2="220" stroke="#333F51"/>
<line x1="267.5" y1="-500" x2="267.5" y2="220" stroke="#333F51"/>
<line x1="291.5" y1="-500" x2="291.5" y2="220" stroke="#333F51"/>
<line x1="315.5" y1="-500" x2="315.5" y2="220" stroke="#333F51"/>
<line x1="339.5" y1="-500" x2="339.5" y2="220" stroke="#333F51"/>
<line x1="363.5" y1="-500" x2="363.5" y2="220" stroke="#333F51"/>
<line x1="387.5" y1="-500" x2="387.5" y2="220" stroke="#333F51"/>
<line x1="411.5" y1="-500" x2="411.5" y2="220" stroke="#333F51"/>
<line x1="435.5" y1="-500" x2="435.5" y2="220" stroke="#333F51"/>
<line x1="459.5" y1="-500" x2="459.5" y2="220" stroke="#333F51"/>
<line x1="483.5" y1="-500" x2="483.5" y2="220" stroke="#333F51"/>
<line x1="507.5" y1="-500" x2="507.5" y2="220" stroke="#333F51"/>
<line x1="531.5" y1="-500" x2="531.5" y2="220" stroke="#333F51"/>
<line x1="555.5" y1="-500" x2="555.5" y2="220" stroke="#333F51"/>
<line x1="579.5" y1="-500" x2="579.5" y2="220" stroke="#333F51"/>
<line x1="603.5" y1="-500" x2="603.5" y2="220" stroke="#333F51"/>
<line x1="627.5" y1="-500" x2="627.5" y2="220" stroke="#333F51"/>
<line x1="651.5" y1="-500" x2="651.5" y2="220" stroke="#333F51"/>
<line x1="675.5" y1="-500" x2="675.5" y2="220" stroke="#333F51"/>
<line x1="699.5" y1="-500" x2="699.5" y2="220" stroke="#333F51"/>
<line x1="723.5" y1="-500" x2="723.5" y2="220" stroke="#333F51"/>
<line x1="747.5" y1="-500" x2="747.5" y2="220" stroke="#333F51"/>
<line x1="771.5" y1="-500" x2="771.5" y2="220" stroke="#333F51"/>
<line x1="795.5" y1="-500" x2="795.5" y2="220" stroke="#333F51"/>
<line x1="819.5" y1="-500" x2="819.5" y2="220" stroke="#333F51"/>
<line x1="843.5" y1="-500" x2="843.5" y2="220" stroke="#333F51"/>
<line x1="867.5" y1="-500" x2="867.5" y2="220" stroke="#333F51"/>
<line x1="891.5" y1="-500" x2="891.5" y2="220" stroke="#333F51"/>
<line x1="915.5" y1="-500" x2="915.5" y2="220" stroke="#333F51"/>
<line x1="939.5" y1="-500" x2="939.5" y2="220" stroke="#333F51"/>
<line x1="963.5" y1="-500" x2="963.5" y2="220" stroke="#333F51"/>
<line x1="987.5" y1="-500" x2="987.5" y2="220" stroke="#333F51"/>
<line x1="1011.5" y1="-500" x2="1011.5" y2="220" stroke="#333F51"/>
<line x1="1035.5" y1="-500" x2="1035.5" y2="220" stroke="#333F51"/>
<line x1="1059.5" y1="-500" x2="1059.5" y2="220" stroke="#333F51"/>
<line x1="1083.5" y1="-500" x2="1083.5" y2="220" stroke="#333F51"/>
<line x1="1107.5" y1="-500" x2="1107.5" y2="220" stroke="#333F51"/>
<line x1="1131.5" y1="-500" x2="1131.5" y2="220" stroke="#333F51"/>
<line x1="1155.5" y1="-500" x2="1155.5" y2="220" stroke="#333F51"/>
<line x1="1179.5" y1="-500" x2="1179.5" y2="220" stroke="#333F51"/>
<line x1="1203.5" y1="-500" x2="1203.5" y2="220" stroke="#333F51"/>
<line x1="1227.5" y1="-500" x2="1227.5" y2="220" stroke="#333F51"/>
<line x1="1251.5" y1="-500" x2="1251.5" y2="220" stroke="#333F51"/>
<line x1="1275.5" y1="-500" x2="1275.5" y2="220" stroke="#333F51"/>
<line x1="1299.5" y1="-500" x2="1299.5" y2="220" stroke="#333F51"/>
<line x1="1323.5" y1="-500" x2="1323.5" y2="220" stroke="#333F51"/>
<line x1="1347.5" y1="-500" x2="1347.5" y2="220" stroke="#333F51"/>
<line x1="1371.5" y1="-500" x2="1371.5" y2="220" stroke="#333F51"/>
</g>
</svg>
