<svg width="95" height="32" viewBox="0 0 95 32" fill="none" xmlns="http://www.w3.org/2000/svg">
<path d="M53.9651 6.99491V10.5818H46.4771V14.4567H52.08V17.9389H46.4771V25.3745H42V6.99491H53.9651Z" fill="white"/>
<path d="M60.7953 6V25.3745H56.3182V6H60.7953Z" fill="white"/>
<path d="M77.8114 17.8342C77.8114 18.2531 77.7852 18.6895 77.7329 19.1433H67.6005C67.6703 20.0509 67.9583 20.7491 68.4645 21.2378C68.9881 21.7091 69.6252 21.9447 70.3758 21.9447C71.4929 21.9447 72.2696 21.4735 72.706 20.5309H77.471C77.2267 21.4909 76.7816 22.3549 76.1358 23.1229C75.5074 23.8909 74.7132 24.4931 73.7532 24.9295C72.7932 25.3658 71.7198 25.584 70.5329 25.584C69.1016 25.584 67.8274 25.2785 66.7103 24.6676C65.5932 24.0567 64.7205 23.184 64.0921 22.0495C63.4638 20.9149 63.1496 19.5884 63.1496 18.0698C63.1496 16.5513 63.455 15.2247 64.066 14.0902C64.6943 12.9556 65.567 12.0829 66.6841 11.472C67.8012 10.8611 69.0841 10.5556 70.5329 10.5556C71.9467 10.5556 73.2034 10.8524 74.303 11.4458C75.4027 12.0393 76.258 12.8858 76.8689 13.9855C77.4972 15.0851 77.8114 16.368 77.8114 17.8342ZM73.2296 16.656C73.2296 15.888 72.9678 15.2771 72.4441 14.8233C71.9205 14.3695 71.266 14.1425 70.4805 14.1425C69.73 14.1425 69.0929 14.3607 68.5692 14.7971C68.063 15.2335 67.7489 15.8531 67.6267 16.656H73.2296Z" fill="white"/>
<path d="M88.8133 25.3745L86.0118 21.3164L83.6555 25.3745H78.8118L83.6293 17.9127L78.6809 10.7651H83.7078L86.5093 14.7971L88.8657 10.7651H93.7093L88.8133 18.1222L93.8402 25.3745H88.8133Z" fill="white"/>
<path d="M14.626 9.94644C19.0055 11.4921 23.7285 11.4063 28.0651 9.73177C28.108 7.97138 27.6357 6.21099 26.8199 4.62235L26.3906 3.76362C26.2618 3.80656 26.09 3.89244 26.0041 3.97831C22.054 5.86751 17.5886 6.12512 13.4238 4.62235C10.5042 3.59188 7.32687 3.8495 4.57895 5.22346L3.72023 5.65282C3.76316 5.78163 3.84904 5.95337 3.93492 6.03924C4.45015 7.15559 4.87951 8.35781 5.18006 9.60296C8.1856 8.74423 11.5346 8.8301 14.626 9.94644Z" fill="#22C55E"/>
<path d="M3.93493 22.87L4.87952 22.3548C6.7935 21.3978 8.90498 20.9345 11 20.9956C12.2888 21.0332 13.5713 21.2692 14.7978 21.7107C15.1973 21.8525 15.5981 21.9827 16 22.1013V26.6779C14.3376 26.3689 12.6547 26.3247 11 26.5377C9.28349 26.7587 7.59733 27.2564 5.99586 28.0224C5.90999 28.1082 5.73824 28.1941 5.60943 28.237L5.18007 27.3783C4.45015 25.9614 4.0208 24.4157 3.93493 22.87Z" fill="#22C55E"/>
<path d="M4.45014 18.9201C8.09972 17.4174 12.1787 17.2885 15.9141 18.6196C19.349 19.8218 22.9986 20.0365 26.4335 19.2636C26.3906 17.3315 26.6482 15.4423 27.3352 13.5531C22.8269 14.8841 17.9751 14.7553 13.4668 13.1667C10.8906 12.2221 8.05679 12.2221 5.48061 13.0808C5.52355 14.927 5.18007 16.8162 4.53603 18.6625C4.53603 18.6625 4.49308 18.7913 4.45014 18.9201Z" fill="#22C55E"/>
</svg>
